# xmcd
#
# Track frame offsets:
#	150
#	14904
#	30299
#	41885
#	55454
#	66459
#	79164
#	87530
#	99029
#	110045
#	125019
#	135682
#	146397
#	159966
#	171756
#
# Disc length: 2425 seconds
#
# Revision: 1
# Processed by: cddbd v1.5.2PL0 Copyright (c) Steve Scherf et al.
# Submitted via: audiograbber 1.83.01
#
DISCID=d209770f
DTITLE=Various Artist - Country Giants CD 1
DYEAR=2007
DGENRE=Country
TTITLE0=Lynne Anderson - Desperado
TTITLE1=Kenny Rogers - My Washington Woman
TTITLE2=Johnny Cash - Port Of Lonely Hearts
TTITLE3=Jerry Lee Lewis - Cold Cold Heart
TTITLE4=George Jones - I'll Share My World With You
TTITLE5=Bobby Bare - Tender Years
TTITLE6=Waylon Jennings - Abilene
TTITLE7=Pat Boone - Speedy Gonzales
TTITLE8=Patsy Cline - Just Out Of Reach
TTITLE9=Jerry Lee Lewis - Jambalaya
TTITLE10=Don Williams - Spend Some Time With Me
TTITLE11=Bobby Dare - Vampira
TTITLE12=Willie Nelson - Home Is Where The Heart Is
TTITLE13=Lynne Anderson - You Don't Have To Say You Love Me
TTITLE14=Freddy Fender - Before The Next Teardrop Falls
EXTD=
EXTT0=
EXTT1=
EXTT2=
EXTT3=
EXTT4=
EXTT5=
EXTT6=
EXTT7=
EXTT8=
EXTT9=
EXTT10=
EXTT11=
EXTT12=
EXTT13=
EXTT14=
PLAYORDER=
